<svg xmlns="http://www.w3.org/2000/svg" xmlns:xlink="http://www.w3.org/1999/xlink" viewBox="0 0 993.21 1073.79"><defs><pattern id="a" x="60.94" y="158.19" width="864" height="864" patternUnits="userSpaceOnUse" viewBox="0 0 864 864"><rect width="864" height="864" style="fill:none"/><rect width="864" height="864" style="fill:#fff"/><polygon points="208.93 864 864 208.93 864 115.07 115.07 864 208.93 864" style="fill:none"/><polygon points="547.07 0 0 547.07 0 640.93 640.93 0 547.07 0" style="fill:none"/><polygon points="316.93 864 864 316.93 864 223.07 223.07 864 316.93 864" style="fill:none"/><polygon points="864 100.93 864 7.07 7.07 864 100.93 864 864 100.93" style="fill:none"/><polygon points="439.07 0 0 439.07 0 532.93 532.93 0 439.07 0" style="fill:none"/><polygon points="331.07 0 0 331.07 0 424.93 424.93 0 331.07 0" style="fill:none"/><polygon points="856.93 864 864 856.93 864 763.07 763.07 864 856.93 864" style="fill:none"/><polygon points="763.07 0 0 763.07 0 856.93 856.93 0 763.07 0" style="fill:none"/><polygon points="655.07 0 0 655.07 0 748.93 748.93 0 655.07 0" style="fill:none"/><polygon points="424.93 864 864 424.93 864 331.07 331.07 864 424.93 864" style="fill:none"/><polygon points="640.93 864 864 640.93 864 547.07 547.07 864 640.93 864" style="fill:none"/><polygon points="532.93 864 864 532.93 864 439.07 439.07 864 532.93 864" style="fill:none"/><polygon points="748.93 864 864 748.93 864 655.07 655.07 864 748.93 864" style="fill:none"/><polygon points="223.07 0 0 223.07 0 316.93 316.93 0 223.07 0" style="fill:none"/><polygon points="7.07 0 0 7.07 0 100.93 100.93 0 7.07 0" style="fill:none"/><polygon points="115.07 0 0 115.07 0 208.93 208.93 0 115.07 0" style="fill:none"/><polygon points="0 0 0 7.07 7.07 0 0 0"/><polygon points="100.93 0 0 100.93 0 115.07 115.07 0 100.93 0"/><polygon points="208.93 0 0 208.93 0 223.07 223.07 0 208.93 0"/><polygon points="316.93 0 0 316.93 0 331.07 331.07 0 316.93 0"/><polygon points="424.93 0 0 424.93 0 439.07 439.07 0 424.93 0"/><polygon points="532.93 0 0 532.93 0 547.07 547.07 0 532.93 0"/><polygon points="640.93 0 0 640.93 0 655.07 655.07 0 640.93 0"/><polygon points="748.93 0 0 748.93 0 763.07 763.07 0 748.93 0"/><polygon points="864 0 856.93 0 0 856.93 0 864 7.07 864 864 7.07 864 0"/><polygon points="115.07 864 864 115.07 864 100.93 100.93 864 115.07 864"/><polygon points="223.07 864 864 223.07 864 208.93 208.93 864 223.07 864"/><polygon points="331.07 864 864 331.07 864 316.93 316.93 864 331.07 864"/><polygon points="439.07 864 864 439.07 864 424.93 424.93 864 439.07 864"/><polygon points="547.07 864 864 547.07 864 532.93 532.93 864 547.07 864"/><polygon points="655.07 864 864 655.07 864 640.93 640.93 864 655.07 864"/><polygon points="763.07 864 864 763.07 864 748.93 748.93 864 763.07 864"/><polygon points="864 864 864 856.93 856.93 864 864 864"/></pattern></defs><rect x="60.94" y="158.19" width="864" height="864" style="fill:url(#a)"/><rect x="153.94" y="419.19" width="277.33" height="180" style="fill:url(#a)"/><line x1="29.94" y1="145.86" x2="29.94" y2="145.86" style="fill:none"/><line x1="268.94" y1="528.86" x2="448.61" y2="708.52" style="fill:none;stroke:#fff;stroke-miterlimit:10;stroke-width:100px"/><line x1="678.77" y1="423.36" x2="858.44" y2="603.02" style="fill:none;stroke:#fff;stroke-miterlimit:10;stroke-width:100px"/><line x1="336.11" y1="35.36" x2="515.77" y2="215.02" style="fill:none;stroke:#fff;stroke-miterlimit:10;stroke-width:100px"/><line x1="332.11" y1="467.36" x2="395.94" y2="531.19" style="fill:none;stroke:#fff;stroke-miterlimit:10;stroke-width:100px"/><line x1="330.02" y1="682.61" x2="393.86" y2="746.44" style="fill:none;stroke:#fff;stroke-miterlimit:10;stroke-width:100px"/><line x1="732.69" y1="397.27" x2="796.52" y2="461.11" style="fill:none;stroke:#fff;stroke-miterlimit:10;stroke-width:100px"/><line x1="758.02" y1="595.94" x2="821.86" y2="659.77" style="fill:none;stroke:#fff;stroke-miterlimit:10;stroke-width:100px"/><line x1="474.02" y1="974.61" x2="537.86" y2="1038.44" style="fill:none;stroke:#fff;stroke-miterlimit:10;stroke-width:100px"/><line x1="470.02" y1="669.27" x2="533.86" y2="733.11" style="fill:none;stroke:#fff;stroke-miterlimit:10;stroke-width:100px"/><line x1="299.36" y1="299.94" x2="363.19" y2="363.77" style="fill:none;stroke:#fff;stroke-miterlimit:10;stroke-width:100px"/><line x1="35.36" y1="211.94" x2="99.19" y2="275.77" style="fill:none;stroke:#fff;stroke-miterlimit:10;stroke-width:100px"/><line x1="894.02" y1="682.61" x2="957.86" y2="746.44" style="fill:none;stroke:#fff;stroke-miterlimit:10;stroke-width:100px"/><line x1="886.02" y1="141.27" x2="949.86" y2="205.11" style="fill:none;stroke:#fff;stroke-miterlimit:10;stroke-width:100px"/><line x1="40.69" y1="849.27" x2="104.52" y2="913.11" style="fill:none;stroke:#fff;stroke-miterlimit:10;stroke-width:100px"/><line x1="572.69" y1="329.27" x2="636.52" y2="393.11" style="fill:none;stroke:#fff;stroke-miterlimit:10;stroke-width:100px"/><line x1="491.36" y1="321.27" x2="555.19" y2="385.11" style="fill:none;stroke:#fff;stroke-miterlimit:10;stroke-width:100px"/><line x1="536.69" y1="811.94" x2="600.52" y2="875.77" style="fill:none;stroke:#fff;stroke-miterlimit:10;stroke-width:100px"/><line x1="556.69" y1="693.27" x2="620.52" y2="757.11" style="fill:none;stroke:#fff;stroke-miterlimit:10;stroke-width:100px"/><line x1="891.36" y1="573.27" x2="955.19" y2="637.11" style="fill:none;stroke:#fff;stroke-miterlimit:10;stroke-width:100px"/><line x1="715.36" y1="319.94" x2="779.19" y2="383.77" style="fill:none;stroke:#fff;stroke-miterlimit:10;stroke-width:100px"/><line x1="243.36" y1="454.61" x2="307.19" y2="518.44" style="fill:none;stroke:#fff;stroke-miterlimit:10;stroke-width:100px"/><line x1="470.02" y1="669.27" x2="533.86" y2="733.11" style="fill:none;stroke:#fff;stroke-miterlimit:10;stroke-width:100px"/><line x1="470.02" y1="669.27" x2="533.86" y2="733.11" style="fill:none;stroke:#fff;stroke-miterlimit:10;stroke-width:100px"/><line x1="164.69" y1="321.27" x2="228.52" y2="385.11" style="fill:none;stroke:#fff;stroke-miterlimit:10;stroke-width:100px"/><line x1="224.69" y1="153.27" x2="288.52" y2="217.11" style="fill:none;stroke:#fff;stroke-miterlimit:10;stroke-width:100px"/></svg>